<mxfile host="app.diagrams.net" modified="2021-09-08T08:40:38.884Z" agent="5.0 (Windows NT 10.0; Win64; x64) AppleWebKit/537.36 (KHTML, like Gecko) Chrome/87.0.4280.141 Safari/537.36" etag="L6SVoVxcMAo83bDII-cp" version="14.9.8" type="github" pages="2">
  <diagram name="Generate Thickness" id="9f46799a-70d6-7492-0946-bef42562c5a5">
    <mxGraphModel dx="868" dy="482" grid="1" gridSize="10" guides="1" tooltips="1" connect="1" arrows="1" fold="1" page="1" pageScale="1" pageWidth="1100" pageHeight="850" background="none" math="0" shadow="0">
      <root>
        <mxCell id="0" />
        <mxCell id="1" parent="0" />
        <mxCell id="QT7ZMFPkqvP3KPUsjoYT-1" value="Start" style="ellipse;whiteSpace=wrap;html=1;" vertex="1" parent="1">
          <mxGeometry x="90" y="230" width="40" height="40" as="geometry" />
        </mxCell>
        <mxCell id="QT7ZMFPkqvP3KPUsjoYT-2" value="" style="shape=process;whiteSpace=wrap;html=1;backgroundOutline=1;" vertex="1" parent="1">
          <mxGeometry x="50" y="290" width="120" height="60" as="geometry" />
        </mxCell>
      </root>
    </mxGraphModel>
  </diagram>
  <diagram id="d28BCqq_O1e7tMZZtqIG" name="Algo">
    <mxGraphModel dx="868" dy="482" grid="1" gridSize="10" guides="1" tooltips="1" connect="1" arrows="1" fold="1" page="1" pageScale="1" pageWidth="850" pageHeight="1100" math="0" shadow="0">
      <root>
        <mxCell id="_V1uL2fhPY6HcHq4oRZW-0" />
        <mxCell id="_V1uL2fhPY6HcHq4oRZW-1" parent="_V1uL2fhPY6HcHq4oRZW-0" />
        <mxCell id="_V1uL2fhPY6HcHq4oRZW-42" style="edgeStyle=orthogonalEdgeStyle;rounded=0;orthogonalLoop=1;jettySize=auto;html=1;entryX=0.5;entryY=0;entryDx=0;entryDy=0;exitX=0.5;exitY=1;exitDx=0;exitDy=0;" parent="_V1uL2fhPY6HcHq4oRZW-1" source="cZspVRcIgzEW1DvL8Xo7-2" target="_V1uL2fhPY6HcHq4oRZW-27" edge="1">
          <mxGeometry relative="1" as="geometry">
            <mxPoint x="230" y="300" as="sourcePoint" />
          </mxGeometry>
        </mxCell>
        <mxCell id="cZspVRcIgzEW1DvL8Xo7-9" style="edgeStyle=orthogonalEdgeStyle;rounded=0;orthogonalLoop=1;jettySize=auto;html=1;exitX=0.5;exitY=1;exitDx=0;exitDy=0;entryX=0.5;entryY=0;entryDx=0;entryDy=0;" parent="_V1uL2fhPY6HcHq4oRZW-1" source="_V1uL2fhPY6HcHq4oRZW-4" target="cZspVRcIgzEW1DvL8Xo7-2" edge="1">
          <mxGeometry relative="1" as="geometry" />
        </mxCell>
        <mxCell id="_V1uL2fhPY6HcHq4oRZW-4" value="&lt;span&gt;Read startup parameters for child process&lt;/span&gt;" style="shape=process;whiteSpace=wrap;html=1;backgroundOutline=1;" parent="_V1uL2fhPY6HcHq4oRZW-1" vertex="1">
          <mxGeometry x="170" y="170" width="120" height="50" as="geometry" />
        </mxCell>
        <mxCell id="_V1uL2fhPY6HcHq4oRZW-14" value="" style="edgeStyle=orthogonalEdgeStyle;rounded=0;orthogonalLoop=1;jettySize=auto;html=1;" parent="_V1uL2fhPY6HcHq4oRZW-1" edge="1">
          <mxGeometry relative="1" as="geometry">
            <mxPoint x="230" y="500" as="sourcePoint" />
            <mxPoint x="230" y="540" as="targetPoint" />
          </mxGeometry>
        </mxCell>
        <mxCell id="_V1uL2fhPY6HcHq4oRZW-7" value="" style="endArrow=classic;html=1;entryX=0.5;entryY=0;entryDx=0;entryDy=0;" parent="_V1uL2fhPY6HcHq4oRZW-1" target="_V1uL2fhPY6HcHq4oRZW-4" edge="1">
          <mxGeometry width="50" height="50" relative="1" as="geometry">
            <mxPoint x="230" y="150" as="sourcePoint" />
            <mxPoint x="280" y="100" as="targetPoint" />
          </mxGeometry>
        </mxCell>
        <mxCell id="_V1uL2fhPY6HcHq4oRZW-36" style="edgeStyle=orthogonalEdgeStyle;rounded=0;orthogonalLoop=1;jettySize=auto;html=1;exitX=0.5;exitY=1;exitDx=0;exitDy=0;entryX=0.5;entryY=0;entryDx=0;entryDy=0;" parent="_V1uL2fhPY6HcHq4oRZW-1" source="_V1uL2fhPY6HcHq4oRZW-8" target="_V1uL2fhPY6HcHq4oRZW-19" edge="1">
          <mxGeometry relative="1" as="geometry" />
        </mxCell>
        <mxCell id="_V1uL2fhPY6HcHq4oRZW-37" style="edgeStyle=orthogonalEdgeStyle;rounded=0;orthogonalLoop=1;jettySize=auto;html=1;exitX=1;exitY=0.25;exitDx=0;exitDy=0;" parent="_V1uL2fhPY6HcHq4oRZW-1" source="_V1uL2fhPY6HcHq4oRZW-8" edge="1">
          <mxGeometry relative="1" as="geometry">
            <mxPoint x="388" y="120" as="targetPoint" />
            <Array as="points">
              <mxPoint x="320" y="413" />
              <mxPoint x="320" y="120" />
              <mxPoint x="388" y="120" />
            </Array>
          </mxGeometry>
        </mxCell>
        <mxCell id="_V1uL2fhPY6HcHq4oRZW-8" value="Start child process GenThk with params" style="shape=process;whiteSpace=wrap;html=1;backgroundOutline=1;" parent="_V1uL2fhPY6HcHq4oRZW-1" vertex="1">
          <mxGeometry x="170" y="400" width="120" height="50" as="geometry" />
        </mxCell>
        <mxCell id="_V1uL2fhPY6HcHq4oRZW-15" value="end" style="ellipse;whiteSpace=wrap;html=1;" parent="_V1uL2fhPY6HcHq4oRZW-1" vertex="1">
          <mxGeometry x="210" y="600" width="40" height="40" as="geometry" />
        </mxCell>
        <mxCell id="_V1uL2fhPY6HcHq4oRZW-17" value="&lt;span&gt;Parent process (service, always running):&lt;/span&gt;" style="ellipse;whiteSpace=wrap;html=1;" parent="_V1uL2fhPY6HcHq4oRZW-1" vertex="1">
          <mxGeometry x="170" y="90" width="120" height="60" as="geometry" />
        </mxCell>
        <mxCell id="_V1uL2fhPY6HcHq4oRZW-19" value="&lt;span style=&quot;font-family: &amp;#34;helvetica&amp;#34;&quot;&gt;Log child process running state&lt;/span&gt;" style="rounded=0;whiteSpace=wrap;html=1;" parent="_V1uL2fhPY6HcHq4oRZW-1" vertex="1">
          <mxGeometry x="170" y="480" width="120" height="40" as="geometry" />
        </mxCell>
        <mxCell id="cZspVRcIgzEW1DvL8Xo7-8" style="edgeStyle=orthogonalEdgeStyle;rounded=0;orthogonalLoop=1;jettySize=auto;html=1;exitX=0;exitY=0.5;exitDx=0;exitDy=0;entryX=-0.025;entryY=0.45;entryDx=0;entryDy=0;entryPerimeter=0;" parent="_V1uL2fhPY6HcHq4oRZW-1" source="_V1uL2fhPY6HcHq4oRZW-21" target="cZspVRcIgzEW1DvL8Xo7-4" edge="1">
          <mxGeometry relative="1" as="geometry">
            <mxPoint x="20" y="290" as="targetPoint" />
            <Array as="points">
              <mxPoint x="20" y="560" />
              <mxPoint x="20" y="299" />
            </Array>
          </mxGeometry>
        </mxCell>
        <mxCell id="_V1uL2fhPY6HcHq4oRZW-21" value="&lt;span&gt;Log child process finishing state&lt;/span&gt;" style="rounded=0;whiteSpace=wrap;html=1;" parent="_V1uL2fhPY6HcHq4oRZW-1" vertex="1">
          <mxGeometry x="170" y="540" width="120" height="40" as="geometry" />
        </mxCell>
        <mxCell id="_V1uL2fhPY6HcHq4oRZW-39" style="edgeStyle=orthogonalEdgeStyle;rounded=0;orthogonalLoop=1;jettySize=auto;html=1;exitX=0.5;exitY=1;exitDx=0;exitDy=0;entryX=0.5;entryY=0;entryDx=0;entryDy=0;" parent="_V1uL2fhPY6HcHq4oRZW-1" source="_V1uL2fhPY6HcHq4oRZW-22" target="_V1uL2fhPY6HcHq4oRZW-23" edge="1">
          <mxGeometry relative="1" as="geometry" />
        </mxCell>
        <mxCell id="_V1uL2fhPY6HcHq4oRZW-22" value="Child process" style="ellipse;whiteSpace=wrap;html=1;" parent="_V1uL2fhPY6HcHq4oRZW-1" vertex="1">
          <mxGeometry x="390" y="85" width="120" height="70" as="geometry" />
        </mxCell>
        <mxCell id="_V1uL2fhPY6HcHq4oRZW-38" style="edgeStyle=orthogonalEdgeStyle;rounded=0;orthogonalLoop=1;jettySize=auto;html=1;exitX=0.5;exitY=1;exitDx=0;exitDy=0;entryX=0.5;entryY=0;entryDx=0;entryDy=0;" parent="_V1uL2fhPY6HcHq4oRZW-1" source="_V1uL2fhPY6HcHq4oRZW-23" edge="1">
          <mxGeometry relative="1" as="geometry">
            <mxPoint x="450" y="300" as="targetPoint" />
          </mxGeometry>
        </mxCell>
        <mxCell id="_V1uL2fhPY6HcHq4oRZW-23" value="parse parameter string&lt;br&gt;Filename, PI server name, LogFile name, Debug level" style="shape=process;whiteSpace=wrap;html=1;backgroundOutline=1;" parent="_V1uL2fhPY6HcHq4oRZW-1" vertex="1">
          <mxGeometry x="390" y="180" width="120" height="90" as="geometry" />
        </mxCell>
        <mxCell id="_V1uL2fhPY6HcHq4oRZW-32" value="" style="edgeStyle=orthogonalEdgeStyle;rounded=0;orthogonalLoop=1;jettySize=auto;html=1;entryX=0.5;entryY=0;entryDx=0;entryDy=0;" parent="_V1uL2fhPY6HcHq4oRZW-1" source="_V1uL2fhPY6HcHq4oRZW-27" target="_V1uL2fhPY6HcHq4oRZW-8" edge="1">
          <mxGeometry relative="1" as="geometry">
            <mxPoint x="230" y="390" as="targetPoint" />
          </mxGeometry>
        </mxCell>
        <mxCell id="_V1uL2fhPY6HcHq4oRZW-44" style="edgeStyle=orthogonalEdgeStyle;rounded=0;orthogonalLoop=1;jettySize=auto;html=1;exitX=0;exitY=0.5;exitDx=0;exitDy=0;entryX=1;entryY=0.5;entryDx=0;entryDy=0;" parent="_V1uL2fhPY6HcHq4oRZW-1" source="_V1uL2fhPY6HcHq4oRZW-27" target="_V1uL2fhPY6HcHq4oRZW-43" edge="1">
          <mxGeometry relative="1" as="geometry" />
        </mxCell>
        <mxCell id="_V1uL2fhPY6HcHq4oRZW-27" value="&lt;span style=&quot;color: rgb(0 , 0 , 0) ; font-family: &amp;#34;helvetica&amp;#34; ; font-size: 12px ; font-style: normal ; font-weight: 400 ; letter-spacing: normal ; text-align: center ; text-indent: 0px ; text-transform: none ; word-spacing: 0px ; background-color: rgb(248 , 249 , 250) ; display: inline ; float: none&quot;&gt;&lt;br&gt;new files to load to PI&lt;/span&gt;&lt;br&gt;exists?" style="rhombus;whiteSpace=wrap;html=1;" parent="_V1uL2fhPY6HcHq4oRZW-1" vertex="1">
          <mxGeometry x="150" y="320" width="160" height="50" as="geometry" />
        </mxCell>
        <mxCell id="_V1uL2fhPY6HcHq4oRZW-41" value="yes" style="text;html=1;align=center;verticalAlign=middle;resizable=0;points=[];autosize=1;strokeColor=none;" parent="_V1uL2fhPY6HcHq4oRZW-1" vertex="1">
          <mxGeometry x="230" y="370" width="30" height="20" as="geometry" />
        </mxCell>
        <mxCell id="_V1uL2fhPY6HcHq4oRZW-45" style="edgeStyle=orthogonalEdgeStyle;rounded=0;orthogonalLoop=1;jettySize=auto;html=1;exitX=0.5;exitY=0;exitDx=0;exitDy=0;" parent="_V1uL2fhPY6HcHq4oRZW-1" source="_V1uL2fhPY6HcHq4oRZW-43" edge="1">
          <mxGeometry relative="1" as="geometry">
            <mxPoint x="230" y="310" as="targetPoint" />
            <Array as="points">
              <mxPoint x="75" y="310" />
            </Array>
          </mxGeometry>
        </mxCell>
        <mxCell id="_V1uL2fhPY6HcHq4oRZW-43" value="Wain X seconds(from params)" style="rounded=0;whiteSpace=wrap;html=1;" parent="_V1uL2fhPY6HcHq4oRZW-1" vertex="1">
          <mxGeometry x="30" y="320" width="90" height="50" as="geometry" />
        </mxCell>
        <mxCell id="cZspVRcIgzEW1DvL8Xo7-5" style="edgeStyle=orthogonalEdgeStyle;rounded=0;orthogonalLoop=1;jettySize=auto;html=1;exitX=0;exitY=0.5;exitDx=0;exitDy=0;entryX=0;entryY=0.5;entryDx=0;entryDy=0;" parent="_V1uL2fhPY6HcHq4oRZW-1" source="cZspVRcIgzEW1DvL8Xo7-2" target="_V1uL2fhPY6HcHq4oRZW-15" edge="1">
          <mxGeometry relative="1" as="geometry">
            <Array as="points">
              <mxPoint x="10" y="260" />
              <mxPoint x="10" y="620" />
            </Array>
          </mxGeometry>
        </mxCell>
        <mxCell id="cZspVRcIgzEW1DvL8Xo7-2" value="&lt;span&gt;Are parameters valid?&lt;/span&gt;" style="rhombus;whiteSpace=wrap;html=1;" parent="_V1uL2fhPY6HcHq4oRZW-1" vertex="1">
          <mxGeometry x="150" y="230" width="160" height="60" as="geometry" />
        </mxCell>
        <mxCell id="cZspVRcIgzEW1DvL8Xo7-4" value="Yes" style="text;html=1;align=center;verticalAlign=middle;resizable=0;points=[];autosize=1;strokeColor=none;" parent="_V1uL2fhPY6HcHq4oRZW-1" vertex="1">
          <mxGeometry x="230" y="290" width="40" height="20" as="geometry" />
        </mxCell>
        <mxCell id="cZspVRcIgzEW1DvL8Xo7-13" value="" style="edgeStyle=orthogonalEdgeStyle;rounded=0;orthogonalLoop=1;jettySize=auto;html=1;" parent="_V1uL2fhPY6HcHq4oRZW-1" source="cZspVRcIgzEW1DvL8Xo7-10" target="cZspVRcIgzEW1DvL8Xo7-11" edge="1">
          <mxGeometry relative="1" as="geometry" />
        </mxCell>
        <mxCell id="cZspVRcIgzEW1DvL8Xo7-10" value="&lt;span&gt;connect to PI server,&lt;/span&gt;&lt;br&gt;&lt;span&gt;write to log if debug level &amp;gt;0&lt;/span&gt;" style="shape=process;whiteSpace=wrap;html=1;backgroundOutline=1;" parent="_V1uL2fhPY6HcHq4oRZW-1" vertex="1">
          <mxGeometry x="390" y="300" width="120" height="60" as="geometry" />
        </mxCell>
        <mxCell id="cZspVRcIgzEW1DvL8Xo7-15" style="edgeStyle=orthogonalEdgeStyle;rounded=0;orthogonalLoop=1;jettySize=auto;html=1;exitX=0;exitY=0.5;exitDx=0;exitDy=0;entryX=0.5;entryY=0;entryDx=0;entryDy=0;" parent="_V1uL2fhPY6HcHq4oRZW-1" source="cZspVRcIgzEW1DvL8Xo7-11" target="cZspVRcIgzEW1DvL8Xo7-14" edge="1">
          <mxGeometry relative="1" as="geometry" />
        </mxCell>
        <mxCell id="cZspVRcIgzEW1DvL8Xo7-18" style="edgeStyle=orthogonalEdgeStyle;rounded=0;orthogonalLoop=1;jettySize=auto;html=1;exitX=0.5;exitY=1;exitDx=0;exitDy=0;entryX=0.5;entryY=0;entryDx=0;entryDy=0;" parent="_V1uL2fhPY6HcHq4oRZW-1" source="cZspVRcIgzEW1DvL8Xo7-11" edge="1">
          <mxGeometry relative="1" as="geometry">
            <mxPoint x="450" y="450" as="targetPoint" />
          </mxGeometry>
        </mxCell>
        <mxCell id="cZspVRcIgzEW1DvL8Xo7-11" value="Connection OK?" style="rhombus;whiteSpace=wrap;html=1;" parent="_V1uL2fhPY6HcHq4oRZW-1" vertex="1">
          <mxGeometry x="410" y="370" width="80" height="50" as="geometry" />
        </mxCell>
        <mxCell id="cZspVRcIgzEW1DvL8Xo7-17" style="edgeStyle=orthogonalEdgeStyle;rounded=0;orthogonalLoop=1;jettySize=auto;html=1;exitX=0;exitY=0.5;exitDx=0;exitDy=0;entryX=1;entryY=0.5;entryDx=0;entryDy=0;" parent="_V1uL2fhPY6HcHq4oRZW-1" source="cZspVRcIgzEW1DvL8Xo7-14" target="_V1uL2fhPY6HcHq4oRZW-21" edge="1">
          <mxGeometry relative="1" as="geometry">
            <Array as="points">
              <mxPoint x="310" y="620" />
              <mxPoint x="310" y="560" />
            </Array>
          </mxGeometry>
        </mxCell>
        <mxCell id="cZspVRcIgzEW1DvL8Xo7-14" value="return -1" style="ellipse;whiteSpace=wrap;html=1;aspect=fixed;" parent="_V1uL2fhPY6HcHq4oRZW-1" vertex="1">
          <mxGeometry x="320" y="600" width="40" height="40" as="geometry" />
        </mxCell>
        <mxCell id="cZspVRcIgzEW1DvL8Xo7-16" value="NO" style="text;html=1;align=center;verticalAlign=middle;resizable=0;points=[];autosize=1;strokeColor=none;" parent="_V1uL2fhPY6HcHq4oRZW-1" vertex="1">
          <mxGeometry x="345" y="380" width="30" height="20" as="geometry" />
        </mxCell>
        <mxCell id="cZspVRcIgzEW1DvL8Xo7-19" value="Yes" style="text;html=1;align=center;verticalAlign=middle;resizable=0;points=[];autosize=1;strokeColor=none;" parent="_V1uL2fhPY6HcHq4oRZW-1" vertex="1">
          <mxGeometry x="450" y="420" width="40" height="20" as="geometry" />
        </mxCell>
        <mxCell id="hqAVgd2b6KqQvTGyEcHb-6" style="edgeStyle=orthogonalEdgeStyle;rounded=0;orthogonalLoop=1;jettySize=auto;html=1;" edge="1" parent="_V1uL2fhPY6HcHq4oRZW-1" source="cZspVRcIgzEW1DvL8Xo7-20" target="hqAVgd2b6KqQvTGyEcHb-0">
          <mxGeometry relative="1" as="geometry" />
        </mxCell>
        <mxCell id="cZspVRcIgzEW1DvL8Xo7-20" value="Start generateThickness function(filename)" style="shape=process;whiteSpace=wrap;html=1;backgroundOutline=1;" parent="_V1uL2fhPY6HcHq4oRZW-1" vertex="1">
          <mxGeometry x="385" y="440" width="130" height="60" as="geometry" />
        </mxCell>
        <mxCell id="hqAVgd2b6KqQvTGyEcHb-3" value="" style="edgeStyle=orthogonalEdgeStyle;rounded=0;orthogonalLoop=1;jettySize=auto;html=1;" edge="1" parent="_V1uL2fhPY6HcHq4oRZW-1" source="hqAVgd2b6KqQvTGyEcHb-0" target="hqAVgd2b6KqQvTGyEcHb-1">
          <mxGeometry relative="1" as="geometry" />
        </mxCell>
        <mxCell id="hqAVgd2b6KqQvTGyEcHb-0" value="Write results to PI" style="shape=process;whiteSpace=wrap;html=1;backgroundOutline=1;" vertex="1" parent="_V1uL2fhPY6HcHq4oRZW-1">
          <mxGeometry x="385" y="520" width="130" height="60" as="geometry" />
        </mxCell>
        <mxCell id="hqAVgd2b6KqQvTGyEcHb-2" style="edgeStyle=orthogonalEdgeStyle;rounded=0;orthogonalLoop=1;jettySize=auto;html=1;entryX=1;entryY=0.5;entryDx=0;entryDy=0;" edge="1" parent="_V1uL2fhPY6HcHq4oRZW-1" source="hqAVgd2b6KqQvTGyEcHb-1" target="_V1uL2fhPY6HcHq4oRZW-21">
          <mxGeometry relative="1" as="geometry">
            <Array as="points">
              <mxPoint x="370" y="620" />
              <mxPoint x="370" y="550" />
              <mxPoint x="290" y="550" />
            </Array>
          </mxGeometry>
        </mxCell>
        <mxCell id="hqAVgd2b6KqQvTGyEcHb-1" value="return 0" style="ellipse;whiteSpace=wrap;html=1;aspect=fixed;" vertex="1" parent="_V1uL2fhPY6HcHq4oRZW-1">
          <mxGeometry x="430" y="600" width="40" height="40" as="geometry" />
        </mxCell>
      </root>
    </mxGraphModel>
  </diagram>
</mxfile>
